<svg width="52" height="52" viewBox="0 0 52 52" fill="none" xmlns="http://www.w3.org/2000/svg">
<path d="M24.4571 41.9207L25.3363 40.664C29.3161 34.4677 31.7832 27.4392 35.3023 20.9932C36.1712 19.4017 37.8298 15.7247 40.0835 16.889C41.7629 17.7566 40.8798 19.8297 40.428 21.1712C39.4458 24.0875 38.1006 26.8947 37.393 29.9007C40.8868 28.5225 45.3542 27.4415 48.8643 29.3185C52.6214 31.3276 53.0343 35.928 49.93 38.7954C47.7355 40.8224 41.6772 42.7737 38.7113 43.7907C36.9195 44.4051 34.2371 45.2035 32.357 44.8091C30.4022 44.3991 30.4255 41.2988 32.6496 41.0365C33.9884 40.8786 34.7946 40.9779 36.1942 40.5808C38.8342 39.832 42.5048 38.4248 45.032 37.3059C46.2848 36.7513 49.0397 35.3924 48.0293 33.5791C47.0411 31.8057 43.6507 32.0832 42.0085 32.4437C39.8154 32.9252 36.5669 34.9279 34.5594 33.31C34.3306 33.1256 34.2151 32.8976 34.0451 32.7141C33.9817 32.6457 33.9904 32.6398 33.88 32.6624C32.653 35.298 31.3445 37.9128 29.8999 40.4326C28.3102 43.2053 24.8097 49.6695 21.1493 45.8939L20.6244 44.9269C19.4763 47.6034 17.3482 52.8326 13.66 51.8871C11.0158 51.2093 10.7724 47.8649 10.7252 45.6133C10.6716 43.0547 10.8838 40.4701 11.1214 37.9012C11.5504 33.2635 12.1815 28.6388 12.9569 24.053C12.8376 24.0717 12.8079 24.2064 12.7563 24.2948C11.0767 27.167 9.75395 31.0215 6.54327 32.5136C4.72304 33.3596 2.51096 33.2227 0.873933 31.9984C-0.328806 31.099 -0.329041 29.1912 1.11623 28.6179C2.8766 27.9195 3.48706 30.0988 5.44453 28.7158C7.29612 27.4076 9.52356 22.1209 10.7879 19.9373C11.7588 18.2606 13.3023 15.5272 15.6225 16.5911C17.6625 17.5265 17.1519 21.0509 16.9389 22.8637C16.1282 29.7641 14.6985 36.5991 14.4715 43.5828C14.4257 44.9938 14.3876 46.4923 14.7539 47.8497C15.8752 46.4786 16.5513 44.7994 17.2837 43.1944C23.3516 29.8959 27.8773 15.528 35.2225 2.88131C35.6917 2.0734 36.5755 0.290619 37.4868 0.0676689C39.1007 -0.327076 40.3706 1.06645 39.791 2.65496C34.8647 13.7042 29.9624 24.6774 26.1316 36.1937C25.5053 38.0767 24.8358 39.965 24.4571 41.9207Z" fill="#FFA135"/>
</svg>
