<svg width="653" height="201" viewBox="0 0 653 201" fill="none" xmlns="http://www.w3.org/2000/svg">
<path d="M576.548 198.184V132.648H596.516V142.888H596.9C601.508 135.08 606.884 131.624 614.82 131.624C616.74 131.624 618.02 131.752 618.916 132.136V150.056H618.404C605.604 148.264 597.412 154.536 597.412 168.744V198.184H576.548Z" fill="black"/>
<path d="M540.823 185.384C549.911 185.384 554.775 177.448 554.775 165.544C554.775 153.64 549.911 145.576 540.823 145.576C531.735 145.576 526.999 153.64 526.999 165.544C526.999 177.448 531.735 185.384 540.823 185.384ZM540.951 200.232C519.959 200.232 505.879 185.256 505.879 165.544C505.879 145.832 519.959 130.856 540.951 130.856C562.071 130.856 575.895 145.832 575.895 165.544C575.895 185.256 562.071 200.232 540.951 200.232Z" fill="black"/>
<path d="M496.957 198.952C484.797 198.952 476.093 194.984 476.093 180.904V145.704H467.389V132.648H476.093V111.912H496.445V132.648H508.349V145.704H496.445V176.424C496.445 181.544 499.261 182.824 503.741 182.824C505.533 182.824 507.581 182.696 508.349 182.696V197.928C506.557 198.44 502.589 198.952 496.957 198.952Z" fill="black"/>
<path d="M439.62 200.232C418.5 200.232 404.804 185.256 404.804 165.544C404.804 145.832 418.372 130.856 439.108 130.856C456.9 130.856 468.292 141.224 470.212 155.944H450.116C448.836 150.056 445.252 146.216 439.364 146.216C430.404 146.216 425.924 153.64 425.924 165.544C425.924 177.192 430.404 184.616 439.364 184.616C445.892 184.616 449.86 180.776 450.756 173.352H470.724C470.212 188.456 458.18 200.232 439.62 200.232Z" fill="black"/>
<path d="M374.523 200.104C352.891 200.104 339.579 185.128 339.579 165.288C339.579 145.704 353.275 130.728 373.243 130.728C382.587 130.728 390.011 133.8 395.643 138.92C403.451 146.088 407.291 157.48 407.163 170.792H360.059C361.339 179.624 366.203 185.128 374.779 185.128C380.283 185.128 383.867 182.696 385.659 178.6H406.011C404.603 184.488 400.763 190.12 395.003 194.088C389.499 197.928 382.843 200.104 374.523 200.104ZM360.187 158.376H386.043C385.275 150.568 380.411 145.576 373.627 145.576C365.691 145.576 361.595 150.568 360.187 158.376Z" fill="black"/>
<path d="M301.173 198.184V132.648H321.141V142.888H321.525C326.133 135.08 331.509 131.624 339.445 131.624C341.365 131.624 342.645 131.752 343.541 132.136V150.056H343.029C330.229 148.264 322.037 154.536 322.037 168.744V198.184H301.173Z" fill="black"/>
<path d="M276.698 198.184V132.648H297.562V198.184H276.698ZM276.698 123.56V106.664H297.562V123.56H276.698Z" fill="black"/>
<path d="M216.784 179.112H230.096C244.944 179.112 252.624 169.768 252.624 153C252.624 136.36 244.56 125.608 230.352 125.608H216.784V179.112ZM194.128 198.184V106.664H233.168C258.512 106.664 275.536 124.968 275.536 153C275.536 169.128 269.904 182.056 259.664 189.864C252.496 195.24 243.28 198.184 231.76 198.184H194.128Z" fill="black"/>
<path d="M157.804 198.952C145.644 198.952 136.94 194.984 136.94 180.904V145.704H128.236V132.648H136.94V111.912H157.292V132.648H169.196V145.704H157.292V176.424C157.292 181.544 160.108 182.824 164.588 182.824C166.38 182.824 168.428 182.696 169.196 182.696V197.928C167.404 198.44 163.436 198.952 157.804 198.952Z" fill="black"/>
<path d="M87.9697 198.184V132.648H107.938V142.888H108.322C112.93 135.08 118.306 131.624 126.242 131.624C128.162 131.624 129.442 131.752 130.338 132.136V150.056H129.826C117.026 148.264 108.834 154.536 108.834 168.744V198.184H87.9697Z" fill="black"/>
<path d="M0 198.184L32.896 106.664H56.192L89.216 198.184H65.408L60.032 181.672H28.032L22.784 198.184H0ZM33.28 165.416H54.784L47.872 143.272C46.336 138.536 44.288 130.344 44.288 130.344H44.032C44.032 130.344 41.856 138.536 40.32 143.272L33.28 165.416Z" fill="black"/>
<path d="M622.699 95.232C603.499 95.232 591.467 86.4 590.827 71.936H610.539C611.307 78.464 615.659 81.664 622.571 81.664C628.843 81.664 632.811 79.36 632.811 75.136C632.811 69.248 624.875 68.608 616.171 67.072C604.779 65.152 592.619 62.08 592.619 46.72C592.619 32.896 605.419 25.728 620.907 25.728C639.467 25.728 649.451 33.792 650.475 46.72H631.275C630.507 40.832 626.539 39.04 620.779 39.04C615.659 39.04 611.691 40.96 611.691 45.056C611.691 49.664 619.115 50.304 627.435 51.84C638.955 53.76 652.523 56.704 652.523 73.472C652.523 87.808 639.851 95.232 622.699 95.232Z" fill="black"/>
<path d="M561.57 95.104C539.938 95.104 526.626 80.128 526.626 60.288C526.626 40.704 540.322 25.728 560.29 25.728C569.634 25.728 577.058 28.8 582.69 33.92C590.498 41.088 594.338 52.48 594.21 65.792H547.106C548.386 74.624 553.25 80.128 561.826 80.128C567.33 80.128 570.914 77.696 572.706 73.6H593.058C591.65 79.488 587.81 85.12 582.05 89.088C576.546 92.928 569.89 95.104 561.57 95.104ZM547.234 53.376H573.09C572.322 45.568 567.458 40.576 560.674 40.576C552.738 40.576 548.642 45.568 547.234 53.376Z" fill="black"/>
<path d="M488.22 93.184V27.648H508.188V37.888H508.572C513.18 30.08 518.556 26.624 526.492 26.624C528.412 26.624 529.692 26.752 530.588 27.136V45.056H530.076C517.276 43.264 509.084 49.536 509.084 63.744V93.184H488.22Z" fill="black"/>
<path d="M444.698 94.848C431.642 94.848 422.298 87.808 422.298 74.88C422.298 60.416 433.818 56.064 447.386 54.272C459.674 52.736 464.026 51.456 464.026 46.976C464.026 42.752 461.338 39.936 455.066 39.936C448.41 39.936 445.082 42.88 444.442 48.384H425.242C425.754 36.224 435.098 25.856 454.938 25.856C464.794 25.856 471.45 27.648 476.186 31.232C481.818 35.328 484.506 41.728 484.506 49.92V82.944C484.506 88.192 485.018 91.136 486.81 92.288V93.184H466.586C465.562 91.776 464.922 89.216 464.41 85.888H464.154C460.314 91.392 454.554 94.848 444.698 94.848ZM451.354 81.536C459.162 81.536 464.538 76.8 464.538 69.76V61.952C461.85 63.36 458.01 64.384 453.786 65.408C445.722 67.2 442.394 69.248 442.394 74.24C442.394 79.488 446.234 81.536 451.354 81.536Z" fill="black"/>
<path d="M389.645 80.384C398.733 80.384 403.597 72.448 403.597 60.544C403.597 48.64 398.733 40.576 389.645 40.576C380.557 40.576 375.821 48.64 375.821 60.544C375.821 72.448 380.557 80.384 389.645 80.384ZM389.773 95.232C368.781 95.232 354.701 80.256 354.701 60.544C354.701 40.832 368.781 25.856 389.773 25.856C410.893 25.856 424.717 40.832 424.717 60.544C424.717 80.256 410.893 95.232 389.773 95.232Z" fill="black"/>
<path d="M317.93 95.36C293.61 95.36 277.61 84.608 277.098 64.384H299.882C300.906 73.6 306.922 77.44 317.802 77.44C325.226 77.44 332.522 74.752 332.522 67.84C332.522 60.544 325.098 59.008 312.554 55.936C296.682 52.224 279.914 47.36 279.914 28.16C279.914 8.576 295.786 0 316.266 0C336.106 0 351.466 8.96 352.362 28.16H330.218C329.322 21.12 323.946 17.152 315.498 17.152C307.562 17.152 302.314 20.608 302.314 25.728C302.314 32.128 309.354 33.664 323.05 36.736C340.074 40.704 355.434 45.952 355.434 65.536C355.434 84.736 339.05 95.36 317.93 95.36Z" fill="black"/>
<path d="M215.017 93.184V27.648H234.985V37.888H235.369C239.977 30.08 245.353 26.624 253.289 26.624C255.209 26.624 256.489 26.752 257.385 27.136V45.056H256.873C244.073 43.264 235.881 49.536 235.881 63.744V93.184H215.017Z" fill="black"/>
<path d="M179.292 80.384C188.38 80.384 193.244 72.448 193.244 60.544C193.244 48.64 188.38 40.576 179.292 40.576C170.204 40.576 165.468 48.64 165.468 60.544C165.468 72.448 170.204 80.384 179.292 80.384ZM179.42 95.232C158.428 95.232 144.348 80.256 144.348 60.544C144.348 40.832 158.428 25.856 179.42 25.856C200.54 25.856 214.364 40.832 214.364 60.544C214.364 80.256 200.54 95.232 179.42 95.232Z" fill="black"/>
<path d="M135.426 93.9521C123.266 93.9521 114.562 89.9841 114.562 75.9041V40.7041H105.858V27.6481H114.562V6.91211H134.914V27.6481H146.818V40.7041H134.914V71.4241C134.914 76.5441 137.73 77.8241 142.21 77.8241C144.002 77.8241 146.05 77.6961 146.818 77.6961V92.9281C145.026 93.4401 141.058 93.9521 135.426 93.9521Z" fill="black"/>
<path d="M84.9668 93.1841V27.6481H105.831V93.1841H84.9668ZM84.9668 18.5601V1.66406H105.831V18.5601H84.9668Z" fill="black"/>
<path d="M32.9521 93.1841L2.74414 1.66406H26.2961L40.6321 49.6641C42.6801 56.5761 44.8561 65.7921 44.8561 65.7921H45.1121C45.1121 65.7921 47.4161 56.4481 49.3361 49.6641L63.5441 1.66406H86.4561L56.3761 93.1841H32.9521Z" fill="black"/>
</svg>
